<?xml version="1.0" encoding="utf-8"?>
<!-- Generator: Adobe Illustrator 26.1.0, SVG Export Plug-In . SVG Version: 6.00 Build 0)  -->
<svg version="1.1" xmlns="http://www.w3.org/2000/svg" xmlns:xlink="http://www.w3.org/1999/xlink" x="0px" y="0px"
	 viewBox="0 0 600 600" style="enable-background:new 0 0 600 600;" xml:space="preserve">
<style type="text/css">
	.st0{fill:#B3B3B3;}
	.st1{fill:#FFFF00;}
	.st2{fill:#FF5D0A;}
	.st3{fill:#FFFFFF;}
	.st4{fill:#999999;}
	.st5{fill:#00FF00;}
	.st6{fill:#FF00FF;}
	.st7{fill:#00FFFF;}
	.st8{opacity:0.66;fill:#FF00FF;}
	.st9{opacity:0.66;fill:#00FFFF;}
</style>
<g id="Layer_1">
	<g>
		<g>
			<path class="st2" d="M282.64,535.88c-42.31,11.81-79.02,4.55-68.84-36.28c10.19-40.84,34.79-157.77,41.38-186.21
				c0.64-2.75,3.31-4.52,6.09-4.04l69.95,8.73c2.87,0.5,4.74,3.31,4.08,6.15l-25.26,115.1L589.32,229.4
				C561.92,117.67,470.87,27.12,350.26,6.21C230.38-14.57,114.82,39.27,51.15,134.2c62-19.29,213.86-56.07,264.58-69.31
				c45.88-11.97,77.28-2.16,68.84,34.97c-9.33,41.04-34.79,157.77-41.38,186.21c-0.64,2.75-3.31,4.52-6.09,4.04l-69.95-7.42
				c-2.87-0.5-4.74-3.31-4.08-6.15l25.26-115.1L9.18,371.28c27.38,111.77,118.44,202.37,239.08,223.28
				c119.85,20.78,235.37-33.02,299.04-127.89C487.28,485.7,333.77,521.61,282.64,535.88z"/>
		</g>
	</g>
</g>
<g id="Layer_2">
</g>
</svg>
