<?xml version="1.0" encoding="utf-8"?>
<!-- Generator: Adobe Illustrator 26.1.0, SVG Export Plug-In . SVG Version: 6.00 Build 0)  -->
<svg version="1.1" xmlns="http://www.w3.org/2000/svg" xmlns:xlink="http://www.w3.org/1999/xlink" x="0px" y="0px"
	 viewBox="0 0 653.33 172" style="enable-background:new 0 0 653.33 172;" xml:space="preserve">
<style type="text/css">
	.st0{fill:#B3B3B3;}
	.st1{fill:#FFFF00;}
	.st2{fill:#FF5D0A;}
	.st3{fill:#FFFFFF;}
	.st4{fill:#999999;}
	.st5{fill:#00FF00;}
	.st6{fill:#FF00FF;}
	.st7{fill:#00FFFF;}
	.st8{opacity:0.66;fill:#FF00FF;}
	.st9{opacity:0.66;fill:#00FFFF;}
</style>
<g id="Layer_1">
	<g>
		<path d="M157.34,161.65c-0.55-0.25-4.73-2.95-8.39-5.56c-3.46-2.47-6.44-4.87-6.48-4.91c-2.05-1.55-3.42-1.41-3.89-1.42
			c-5.26-0.03-31.9-0.21-35.78-0.21H27c-0.18,0-0.28-0.2-0.18-0.35L119.9,21.96c0-0.01,0.01-0.01,0.01-0.02
			c0.98-1.63,1.84-3.89,1.84-5.85c0-5.55-4.24-9.46-9.47-9.46H10.69c-2.89,0-5.6,1.77-6.82,4.54c-2.19,4.94,1.8,10.78,7.21,10.78
			h87.51c0.18,0,0.28,0.2,0.18,0.35L6.66,149.55c-1.2,1.5-1.85,3-1.94,5c-0.27,5.47,4.24,10.01,9.72,10.01h88.89
			c1.97,0,37.35,0,53.38,0C158.36,164.57,158.83,162.33,157.34,161.65z"/>
		<path d="M615.73,2.94c-3.5,0-5.93,2.65-6.95,5.44l-45.52,92.21l-43.31-89.57c-1.15-2.48-2.91-4.7-5.66-5.18
			c0,0-0.23-0.04,0.18-0.05L407.66,5.74l-3.5,0h-65.42c-16.17,0-29.85,4.24-39.56,12.26c-9.14,7.54-14.17,18.11-14.17,29.75
			c0,29.24,27.72,36.08,52.18,42.11l0.75,0.19c20.2,5.27,41.1,10.72,41.1,29.54c0,17-14.38,28.17-36.84,28.86
			c-35.93-0.08-125.76-0.27-139.11-0.27c-32.03,0-55.59-23.73-57.53-57.79h114.26c6.42,0,10.26-3.6,10.26-9.64
			c0-19.81-6.51-38.26-18.32-51.94c-13.02-15.08-31.23-23.06-52.67-23.06c-20.01,0-38.45,8.18-51.93,23.04
			c-13.29,14.65-20.61,34.42-20.61,55.66c0,22.36,7.53,42.56,21.2,56.87c13.64,14.28,32.86,22.14,54.11,22.14l128.68-0.16
			c0,0,17.59-0.18,26.67-1.51c9.08-1.33,18.34-5.84,24.8-11.36c9.26-7.92,14.16-18.79,14.16-31.44c0-32.14-28.9-39.45-54.4-45.9
			l-1.19-0.3c-20.63-5.23-38.44-9.75-38.44-25.94c0-15.62,14.71-26.12,36.6-26.12l65.18-0.02v0h36.58v133.78
			c0,4.85,3.97,8.76,8.82,8.68c4.74-0.07,8.55-3.94,8.55-8.68V20.68h49.61l47.36,97.37l-9.66,18.84
			c-5,10.43-10.54,12.52-17.85,12.52c-1.98,0-3.39-0.24-4.52-0.44c-0.76-0.13-1.42-0.24-2.04-0.24c-4.42,0-8.02,3.09-8.02,6.89
			c0,3.52,3.01,6.35,7.36,6.88c2.36,0.23,4.79,0.46,7.23,0.46c15.79,0,26.22-7.9,32.9-21.95l62.85-126.99l0.05-0.12
			c0.55-1.43,0.88-2.29,0.88-3.46C624.01,6.12,620.6,2.94,615.73,2.94z M198.78,21.01c38.39,0,52.98,32.81,53.55,55.33H145.56
			C147.18,48.72,165.86,21.01,198.78,21.01z"/>
		<path d="M511.47,5.79l1.23,0C512.05,5.78,511.68,5.78,511.47,5.79z"/>
	</g>
	<g>
		<path class="st0" d="M616.44,141.81v-16.39h-5.25c-0.59,0-1.09-0.5-1.09-1.09s0.5-1.09,1.09-1.09h12.97c0.59,0,1.09,0.5,1.09,1.09
			s-0.5,1.09-1.09,1.09h-5.28v16.39c0,0.65-0.53,1.21-1.21,1.21C617,143.02,616.44,142.46,616.44,141.81z"/>
		<path class="st0" d="M645.18,141.81v-15.27l-6.51,15.98c-0.12,0.32-0.35,0.5-0.68,0.5c-0.29,0-0.56-0.18-0.68-0.5l-6.49-15.98
			v15.27c0,0.65-0.56,1.21-1.21,1.21c-0.71,0-1.24-0.56-1.24-1.21v-16.63c0-1.12,0.91-2.06,2.06-2.06c0.88,0,1.62,0.53,1.92,1.3
			l5.63,13.89l5.66-13.89c0.29-0.77,1.03-1.3,1.92-1.3c1.15,0,2.06,0.94,2.06,2.06v16.63c0,0.65-0.53,1.21-1.24,1.21
			C645.74,143.02,645.18,142.46,645.18,141.81z"/>
	</g>
</g>
<g id="Layer_2">
</g>
</svg>
